# xmcd
#
# Track frame offsets:
#	150
#	24487
#	37732
#	50090
#	64315
#	78642
#	108077
#	119190
#	135862
#	159547
#	170240
#	184590
#	202250
#	218952
#	231940
#	254537
#
# Disc length: 3432 seconds
#
# Revision: 0
# Processed by: cddbd v1.4b42PL1 Copyright (c) Steve Scherf et al.
# Submitted via: EasyCDDAExtractor 4.5.0.2
#
DISCID=ed0d6610
DTITLE=Chimo
DYEAR=1900
DGENRE=Blues
TTITLE0=Cross Country Man
TTITLE1=In The Sea
TTITLE2=Love Lady
TTITLE3=Pattie Love
TTITLE4=Silken Silver Melody
TTITLE5=Day After Day
TTITLE6=Lonely Girl
TTITLE7=Quicksilver Woman
TTITLE8=Hour Glass
TTITLE9=Elephant Bath
TTITLE10=Sheba
TTITLE11=Time Waits For No Man
TTITLE12=Is That You Girl
TTITLE13=Procession Of Mabs
TTITLE14=Ect Blues
TTITLE15=It's A Long Long Time
EXTD=
EXTT0=
EXTT1=
EXTT2=
EXTT3=
EXTT4=
EXTT5=
EXTT6=
EXTT7=
EXTT8=
EXTT9=
EXTT10=
EXTT11=
EXTT12=
EXTT13=
EXTT14=
EXTT15=
PLAYORDER=
